<svg width="37" height="36" viewBox="0 0 37 36" fill="none" xmlns="http://www.w3.org/2000/svg">
<path d="M1.76903 16.4207H14.7058C15.6696 16.4207 16.4478 15.6425 16.4478 14.6787V1.74194C16.4478 0.778041 15.6696 0 14.7058 0H1.76903C0.805141 0 0.0270996 0.778041 0.0270996 1.74194V14.6787C0.0270996 15.6425 0.805141 16.4207 1.76903 16.4207ZM34.2852 0H21.3484C20.3846 0 19.6064 0.778041 19.6064 1.74194V14.6787C19.6064 15.6425 20.3846 16.4207 21.3484 16.4207H34.2852C35.2491 16.4207 36.0271 15.6425 36.0271 14.6787V1.74194C36.0271 0.778041 35.2491 0 34.2852 0ZM1.76903 36H14.7058C15.6696 36 16.4478 35.2219 16.4478 34.2581V21.3213C16.4478 20.3574 15.6696 19.5793 14.7058 19.5793H1.76903C0.805141 19.5793 0.0270996 20.3574 0.0270996 21.3213V34.2581C0.0270996 35.2219 0.805141 36 1.76903 36ZM34.2852 19.5793H21.3484C20.3846 19.5793 19.6064 20.3574 19.6064 21.3213V34.2581C19.6064 35.2219 20.3846 36 21.3484 36H34.2852C35.2491 36 36.0271 35.2219 36.0271 34.2581V21.3213C36.0271 20.3574 35.2491 19.5793 34.2852 19.5793Z" fill="#2D2D2D"/>
</svg>
