<svg width="37" height="36" viewBox="0 0 37 36" fill="none" xmlns="http://www.w3.org/2000/svg">
<path d="M1.76928 16.4207H14.7061C15.6699 16.4207 16.448 15.6425 16.448 14.6787V1.74194C16.448 0.778041 15.6699 0 14.7061 0H1.76928C0.805385 0 0.0273438 0.778041 0.0273438 1.74194V14.6787C0.0273438 15.6425 0.805385 16.4207 1.76928 16.4207ZM34.2854 0H21.3486C20.3848 0 19.6067 0.778041 19.6067 1.74194V14.6787C19.6067 15.6425 20.3848 16.4207 21.3486 16.4207H34.2854C35.2493 16.4207 36.0273 15.6425 36.0273 14.6787V1.74194C36.0273 0.778041 35.2493 0 34.2854 0ZM1.76928 36H14.7061C15.6699 36 16.448 35.2219 16.448 34.2581V21.3213C16.448 20.3574 15.6699 19.5793 14.7061 19.5793H1.76928C0.805385 19.5793 0.0273438 20.3574 0.0273438 21.3213V34.2581C0.0273438 35.2219 0.805385 36 1.76928 36ZM34.2854 19.5793H21.3486C20.3848 19.5793 19.6067 20.3574 19.6067 21.3213V34.2581C19.6067 35.2219 20.3848 36 21.3486 36H34.2854C35.2493 36 36.0273 35.2219 36.0273 34.2581V21.3213C36.0273 20.3574 35.2493 19.5793 34.2854 19.5793Z" fill="white"/>
</svg>
