<svg width="25" height="25" viewBox="0 0 25 25" fill="none" xmlns="http://www.w3.org/2000/svg">
<circle cx="12.5" cy="12.5" r="12.5" fill="#2D2D2D"/>
<path d="M14.7185 6C15.583 6.48312 16.3238 7.16007 16.8826 7.97768C17.4414 8.79529 17.8031 9.73131 17.9392 10.7122C18.0753 11.6932 17.9822 12.6923 17.6671 13.6312C17.3521 14.5701 16.8237 15.4231 16.1234 16.1234C15.4231 16.8237 14.5701 17.3521 13.6312 17.6671C12.6923 17.9822 11.6932 18.0753 10.7122 17.9392C9.73131 17.8031 8.79529 17.4414 7.97768 16.8826C7.16007 16.3238 6.48312 15.583 6 14.7185C8.4395 16.0842 11.5834 15.7331 13.6579 13.6586C15.7331 11.5834 16.085 8.44023 14.7185 6Z" fill="white"/>
</svg>
